<?xml version="1.0" encoding="UTF-8" standalone="no"?>
<!DOCTYPE svg PUBLIC "-//W3C//DTD SVG 1.1//EN"
 "http://www.w3.org/Graphics/SVG/1.1/DTD/svg11.dtd">
<!-- Generated by graphviz version 2.26.3 (20100126.1600)
 -->
<!-- Title: havlak4; 1851 samples Pages: 1 -->
<svg width="100%" height="100%"
  xmlns="http://www.w3.org/2000/svg" xmlns:xlink="http://www.w3.org/1999/xlink">
<script type="text/ecmascript"><![CDATA[
// SVGPan
// http://www.cyberz.org/blog/2009/12/08/svgpan-a-javascript-svg-panzoomdrag-library/
// Local modification: if(true || ...) below to force panning, never moving.
// Local modification: add clamping to fix bug in handleMouseWheel.

/**
 *  SVGPan library 1.2
 * ====================
 *
 * Given an unique existing element with id "viewport", including the
 * the library into any SVG adds the following capabilities:
 *
 *  - Mouse panning
 *  - Mouse zooming (using the wheel)
 *  - Object dargging
 *
 * Known issues:
 *
 *  - Zooming (while panning) on Safari has still some issues
 *
 * Releases:
 *
 * 1.2, Sat Mar 20 08:42:50 GMT 2010, Zeng Xiaohui
 *	Fixed a bug with browser mouse handler interaction
 *
 * 1.1, Wed Feb  3 17:39:33 GMT 2010, Zeng Xiaohui
 *	Updated the zoom code to support the mouse wheel on Safari/Chrome
 *
 * 1.0, Andrea Leofreddi
 *	First release
 *
 * This code is licensed under the following BSD license:
 *
 * Copyright 2009-2010 Andrea Leofreddi <a.leofreddi@itcharm.com>. All rights reserved.
 *
 * Redistribution and use in source and binary forms, with or without modification, are
 * permitted provided that the following conditions are met:
 *
 *    1. Redistributions of source code must retain the above copyright notice, this list of
 *       conditions and the following disclaimer.
 *
 *    2. Redistributions in binary form must reproduce the above copyright notice, this list
 *       of conditions and the following disclaimer in the documentation and/or other materials
 *       provided with the distribution.
 *
 * THIS SOFTWARE IS PROVIDED BY Andrea Leofreddi ``AS IS'' AND ANY EXPRESS OR IMPLIED
 * WARRANTIES, INCLUDING, BUT NOT LIMITED TO, THE IMPLIED WARRANTIES OF MERCHANTABILITY AND
 * FITNESS FOR A PARTICULAR PURPOSE ARE DISCLAIMED. IN NO EVENT SHALL Andrea Leofreddi OR
 * CONTRIBUTORS BE LIABLE FOR ANY DIRECT, INDIRECT, INCIDENTAL, SPECIAL, EXEMPLARY, OR
 * CONSEQUENTIAL DAMAGES (INCLUDING, BUT NOT LIMITED TO, PROCUREMENT OF SUBSTITUTE GOODS OR
 * SERVICES; LOSS OF USE, DATA, OR PROFITS; OR BUSINESS INTERRUPTION) HOWEVER CAUSED AND ON
 * ANY THEORY OF LIABILITY, WHETHER IN CONTRACT, STRICT LIABILITY, OR TORT (INCLUDING
 * NEGLIGENCE OR OTHERWISE) ARISING IN ANY WAY OUT OF THE USE OF THIS SOFTWARE, EVEN IF
 * ADVISED OF THE POSSIBILITY OF SUCH DAMAGE.
 *
 * The views and conclusions contained in the software and documentation are those of the
 * authors and should not be interpreted as representing official policies, either expressed
 * or implied, of Andrea Leofreddi.
 */

var root = document.documentElement;

var state = 'none', stateTarget, stateOrigin, stateTf;

setupHandlers(root);

/**
 * Register handlers
 */
function setupHandlers(root){
	setAttributes(root, {
		"onmouseup" : "add(evt)",
		"onmousedown" : "handleMouseDown(evt)",
		"onmousemove" : "handleMouseMove(evt)",
		"onmouseup" : "handleMouseUp(evt)",
		//"onmouseout" : "handleMouseUp(evt)", // Decomment this to stop the pan functionality when dragging out of the SVG element
	});

	if(navigator.userAgent.toLowerCase().indexOf('webkit') >= 0)
		window.addEventListener('mousewheel', handleMouseWheel, false); // Chrome/Safari
	else
		window.addEventListener('DOMMouseScroll', handleMouseWheel, false); // Others

	var g = svgDoc.getElementById("svg");
	g.width = "100%";
	g.height = "100%";
}

/**
 * Instance an SVGPoint object with given event coordinates.
 */
function getEventPoint(evt) {
	var p = root.createSVGPoint();

	p.x = evt.clientX;
	p.y = evt.clientY;

	return p;
}

/**
 * Sets the current transform matrix of an element.
 */
function setCTM(element, matrix) {
	var s = "matrix(" + matrix.a + "," + matrix.b + "," + matrix.c + "," + matrix.d + "," + matrix.e + "," + matrix.f + ")";

	element.setAttribute("transform", s);
}

/**
 * Dumps a matrix to a string (useful for debug).
 */
function dumpMatrix(matrix) {
	var s = "[ " + matrix.a + ", " + matrix.c + ", " + matrix.e + "\n  " + matrix.b + ", " + matrix.d + ", " + matrix.f + "\n  0, 0, 1 ]";

	return s;
}

/**
 * Sets attributes of an element.
 */
function setAttributes(element, attributes){
	for (i in attributes)
		element.setAttributeNS(null, i, attributes[i]);
}

/**
 * Handle mouse move event.
 */
function handleMouseWheel(evt) {
	if(evt.preventDefault)
		evt.preventDefault();

	evt.returnValue = false;

	var svgDoc = evt.target.ownerDocument;

	var delta;

	if(evt.wheelDelta)
		delta = evt.wheelDelta / 3600; // Chrome/Safari
	else
		delta = evt.detail / -90; // Mozilla

	var z = 1 + delta; // Zoom factor: 0.9/1.1

	// Clamp to reasonable values.
	// The 0.1 check is important because
	// a very large scroll can turn into a
	// negative z, which rotates the image 180 degrees.
	if(z < 0.1)
		z = 0.1;
	if(z > 10.0)
		z = 10.0;
		
	var g = svgDoc.getElementById("viewport");

	var p = getEventPoint(evt);

	p = p.matrixTransform(g.getCTM().inverse());

	// Compute new scale matrix in current mouse position
	var k = root.createSVGMatrix().translate(p.x, p.y).scale(z).translate(-p.x, -p.y);

        setCTM(g, g.getCTM().multiply(k));

	stateTf = stateTf.multiply(k.inverse());
}

/**
 * Handle mouse move event.
 */
function handleMouseMove(evt) {
	if(evt.preventDefault)
		evt.preventDefault();

	evt.returnValue = false;

	var svgDoc = evt.target.ownerDocument;

	var g = svgDoc.getElementById("viewport");

	if(state == 'pan') {
		// Pan mode
		var p = getEventPoint(evt).matrixTransform(stateTf);

		setCTM(g, stateTf.inverse().translate(p.x - stateOrigin.x, p.y - stateOrigin.y));
	} else if(state == 'move') {
		// Move mode
		var p = getEventPoint(evt).matrixTransform(g.getCTM().inverse());

		setCTM(stateTarget, root.createSVGMatrix().translate(p.x - stateOrigin.x, p.y - stateOrigin.y).multiply(g.getCTM().inverse()).multiply(stateTarget.getCTM()));

		stateOrigin = p;
	}
}

/**
 * Handle click event.
 */
function handleMouseDown(evt) {
	if(evt.preventDefault)
		evt.preventDefault();

	evt.returnValue = false;

	var svgDoc = evt.target.ownerDocument;

	var g = svgDoc.getElementById("viewport");

	if(true || evt.target.tagName == "svg") {
		// Pan mode
		state = 'pan';

		stateTf = g.getCTM().inverse();

		stateOrigin = getEventPoint(evt).matrixTransform(stateTf);
	} else {
		// Move mode
		state = 'move';

		stateTarget = evt.target;

		stateTf = g.getCTM().inverse();

		stateOrigin = getEventPoint(evt).matrixTransform(stateTf);
	}
}

/**
 * Handle mouse button release event.
 */
function handleMouseUp(evt) {
	if(evt.preventDefault)
		evt.preventDefault();

	evt.returnValue = false;

	var svgDoc = evt.target.ownerDocument;

	if(state == 'pan' || state == 'move') {
		// Quit pan mode
		state = '';
	}
}

]]></script>
<g id="viewport" transform="translate(0,0)">
<g id="viewport" class="graph" transform="scale(1 1) rotate(0) translate(4 1636)">
<title>havlak4; 1851 samples</title>
<polygon fill="white" stroke="white" points="-4,5 -4,-1636 978,-1636 978,5 -4,5"/>
<!-- Legend -->
<g id="node1" class="node"><title>Legend</title>
<text text-anchor="start" x="7.5" y="-1605.9" font-family="Times Roman,serif" font-size="24.00">havlak4</text>
<text text-anchor="start" x="7.5" y="-1576.9" font-family="Times Roman,serif" font-size="24.00">Total samples: 1851</text>
<text text-anchor="start" x="7.5" y="-1547.9" font-family="Times Roman,serif" font-size="24.00">Focusing on: 1054</text>
<text text-anchor="start" x="7.5" y="-1518.9" font-family="Times Roman,serif" font-size="24.00">Dropped nodes with &lt;= 105 abs(samples)</text>
<text text-anchor="start" x="7.5" y="-1489.9" font-family="Times Roman,serif" font-size="24.00">Dropped edges with &lt;= 1 samples</text>
</g>
<!-- N1 -->
<g id="node2" class="node"><title>N1</title>
<polygon fill="none" stroke="black" points="794,-668 550,-668 550,-564 794,-564 794,-668"/>
<text text-anchor="middle" x="672" y="-640.24" font-family="Times Roman,serif" font-size="26.40">runtime.mallocgc</text>
<text text-anchor="end" x="786.5" y="-608.24" font-family="Times Roman,serif" font-size="26.40">142 (7.7%)</text>
<text text-anchor="end" x="786.5" y="-576.24" font-family="Times Roman,serif" font-size="26.40">of 1054 (56.9%)</text>
</g>
<!-- N9 -->
<g id="node10" class="node"><title>N9</title>
<polygon fill="none" stroke="black" points="711,-487 633,-487 633,-449 711,-449 711,-487"/>
<text text-anchor="middle" x="672" y="-475.8" font-family="Times Roman,serif" font-size="8.00">runtime.gc</text>
<text text-anchor="end" x="703.5" y="-465.8" font-family="Times Roman,serif" font-size="8.00">0 (0.0%)</text>
<text text-anchor="end" x="703.5" y="-455.8" font-family="Times Roman,serif" font-size="8.00">of 559 (30.2%)</text>
</g>
<!-- N1&#45;&gt;N9 -->
<g id="edge36" class="edge"><title>N1&#45;&gt;N9</title>
<path fill="none" stroke="black" stroke-width="2" d="M672,-563.821C672,-541.455 672,-516.168 672,-497.189"/>
<polygon fill="black" stroke="black" points="675.5,-497.083 672,-487.083 668.5,-497.083 675.5,-497.083"/>
<text text-anchor="middle" x="686" y="-533.4" font-family="Times Roman,serif" font-size="14.00">559</text>
</g>
<!-- N16 -->
<g id="node17" class="node"><title>N16</title>
<polygon fill="none" stroke="black" points="973,-509.5 729,-509.5 729,-426.5 973,-426.5 973,-509.5"/>
<text text-anchor="middle" x="851" y="-487.41" font-family="Times Roman,serif" font-size="20.10">runtime.MCache_Alloc</text>
<text text-anchor="end" x="965.5" y="-462.41" font-family="Times Roman,serif" font-size="20.10">62 (3.3%)</text>
<text text-anchor="end" x="965.5" y="-437.41" font-family="Times Roman,serif" font-size="20.10">of 274 (14.8%)</text>
</g>
<!-- N1&#45;&gt;N16 -->
<g id="edge2" class="edge"><title>N1&#45;&gt;N16</title>
<path fill="none" stroke="black" stroke-width="1.55977" d="M735.109,-563.821C753.868,-548.31 774.327,-531.395 792.761,-516.153"/>
<polygon fill="black" stroke="black" points="795.05,-518.801 800.527,-509.732 790.59,-513.407 795.05,-518.801"/>
<text text-anchor="middle" x="791" y="-533.4" font-family="Times Roman,serif" font-size="14.00">274</text>
</g>
<!-- N2 -->
<g id="node3" class="node"><title>N2</title>
<polygon fill="none" stroke="black" points="629,-1332 545,-1332 545,-1294 629,-1294 629,-1332"/>
<text text-anchor="middle" x="587" y="-1320.8" font-family="Times Roman,serif" font-size="8.00">main.main</text>
<text text-anchor="end" x="621" y="-1310.8" font-family="Times Roman,serif" font-size="8.00">0 (0.0%)</text>
<text text-anchor="end" x="621" y="-1300.8" font-family="Times Roman,serif" font-size="8.00">of 1040 (56.2%)</text>
</g>
<!-- N5 -->
<g id="node6" class="node"><title>N5</title>
<polygon fill="none" stroke="black" points="642,-1240 532,-1240 532,-1202 642,-1202 642,-1240"/>
<text text-anchor="middle" x="587" y="-1228.8" font-family="Times Roman,serif" font-size="8.00">main.FindHavlakLoops</text>
<text text-anchor="end" x="634" y="-1218.8" font-family="Times Roman,serif" font-size="8.00">0 (0.0%)</text>
<text text-anchor="end" x="634" y="-1208.8" font-family="Times Roman,serif" font-size="8.00">of 1025 (55.4%)</text>
</g>
<!-- N2&#45;&gt;N5 -->
<g id="edge12" class="edge"><title>N2&#45;&gt;N5</title>
<path fill="none" stroke="black" stroke-width="2" d="M587,-1293.94C587,-1281.36 587,-1264.62 587,-1250.36"/>
<polygon fill="black" stroke="black" points="590.5,-1250.04 587,-1240.04 583.5,-1250.04 590.5,-1250.04"/>
<text text-anchor="middle" x="605.5" y="-1263.4" font-family="Times Roman,serif" font-size="14.00">1025</text>
</g>
<!-- N3 -->
<g id="node4" class="node"><title>N3</title>
<polygon fill="none" stroke="black" points="630,-1574 544,-1574 544,-1536 630,-1536 630,-1574"/>
<text text-anchor="middle" x="587" y="-1562.8" font-family="Times Roman,serif" font-size="8.00">runtime.initdone</text>
<text text-anchor="end" x="622" y="-1552.8" font-family="Times Roman,serif" font-size="8.00">0 (0.0%)</text>
<text text-anchor="end" x="622" y="-1542.8" font-family="Times Roman,serif" font-size="8.00">of 1040 (56.2%)</text>
</g>
<!-- N4 -->
<g id="node5" class="node"><title>N4</title>
<polygon fill="none" stroke="black" points="634,-1424 540,-1424 540,-1386 634,-1386 634,-1424"/>
<text text-anchor="middle" x="587" y="-1412.8" font-family="Times Roman,serif" font-size="8.00">runtime.mainstart</text>
<text text-anchor="end" x="626" y="-1402.8" font-family="Times Roman,serif" font-size="8.00">0 (0.0%)</text>
<text text-anchor="end" x="626" y="-1392.8" font-family="Times Roman,serif" font-size="8.00">of 1040 (56.2%)</text>
</g>
<!-- N3&#45;&gt;N4 -->
<g id="edge48" class="edge"><title>N3&#45;&gt;N4</title>
<path fill="none" stroke="black" stroke-width="2" d="M587,-1535.7C587,-1510.05 587,-1464.48 587,-1434.5"/>
<polygon fill="black" stroke="black" points="590.5,-1434.23 587,-1424.23 583.5,-1434.23 590.5,-1434.23"/>
<text text-anchor="middle" x="605.5" y="-1447.4" font-family="Times Roman,serif" font-size="14.00">1040</text>
</g>
<!-- N4&#45;&gt;N2 -->
<g id="edge10" class="edge"><title>N4&#45;&gt;N2</title>
<path fill="none" stroke="black" stroke-width="2" d="M587,-1385.94C587,-1373.36 587,-1356.62 587,-1342.36"/>
<polygon fill="black" stroke="black" points="590.5,-1342.04 587,-1332.04 583.5,-1342.04 590.5,-1342.04"/>
<text text-anchor="middle" x="605.5" y="-1355.4" font-family="Times Roman,serif" font-size="14.00">1040</text>
</g>
<!-- N6 -->
<g id="node7" class="node"><title>N6</title>
<polygon fill="none" stroke="black" points="629,-1148 545,-1148 545,-1110 629,-1110 629,-1148"/>
<text text-anchor="middle" x="587" y="-1136.8" font-family="Times Roman,serif" font-size="8.00">main.FindLoops</text>
<text text-anchor="end" x="621" y="-1126.8" font-family="Times Roman,serif" font-size="8.00">0 (0.0%)</text>
<text text-anchor="end" x="621" y="-1116.8" font-family="Times Roman,serif" font-size="8.00">of 1025 (55.4%)</text>
</g>
<!-- N5&#45;&gt;N6 -->
<g id="edge30" class="edge"><title>N5&#45;&gt;N6</title>
<path fill="none" stroke="black" stroke-width="2" d="M587,-1201.94C587,-1189.36 587,-1172.62 587,-1158.36"/>
<polygon fill="black" stroke="black" points="590.5,-1158.04 587,-1148.04 583.5,-1158.04 590.5,-1158.04"/>
<text text-anchor="middle" x="605.5" y="-1171.4" font-family="Times Roman,serif" font-size="14.00">1025</text>
</g>
<!-- N11 -->
<g id="node12" class="node"><title>N11</title>
<polygon fill="none" stroke="black" points="633,-1056 541,-1056 541,-1018 633,-1018 633,-1056"/>
<text text-anchor="middle" x="587" y="-1044.8" font-family="Times Roman,serif" font-size="8.00">runtime.growslice</text>
<text text-anchor="end" x="625.5" y="-1034.8" font-family="Times Roman,serif" font-size="8.00">0 (0.0%)</text>
<text text-anchor="end" x="625.5" y="-1024.8" font-family="Times Roman,serif" font-size="8.00">of 421 (22.7%)</text>
</g>
<!-- N6&#45;&gt;N11 -->
<g id="edge8" class="edge"><title>N6&#45;&gt;N11</title>
<path fill="none" stroke="black" stroke-width="1.08729" d="M587,-1109.94C587,-1097.36 587,-1080.62 587,-1066.36"/>
<polygon fill="black" stroke="black" points="590.5,-1066.04 587,-1056.04 583.5,-1066.04 590.5,-1066.04"/>
<text text-anchor="middle" x="601" y="-1079.4" font-family="Times Roman,serif" font-size="14.00">191</text>
</g>
<!-- N12 -->
<g id="node13" class="node"><title>N12</title>
<polygon fill="none" stroke="black" points="722,-944 644,-944 644,-906 722,-906 722,-944"/>
<text text-anchor="middle" x="683" y="-932.8" font-family="Times Roman,serif" font-size="8.00">runtime.new</text>
<text text-anchor="end" x="714.5" y="-922.8" font-family="Times Roman,serif" font-size="8.00">0 (0.0%)</text>
<text text-anchor="end" x="714.5" y="-912.8" font-family="Times Roman,serif" font-size="8.00">of 374 (20.2%)</text>
</g>
<!-- N6&#45;&gt;N12 -->
<g id="edge16" class="edge"><title>N6&#45;&gt;N12</title>
<path fill="none" stroke="black" stroke-width="1.463" d="M604.483,-1109.85C609.355,-1104.24 614.532,-1097.99 619,-1092 630.351,-1076.78 633.983,-1073.21 642,-1056 657.635,-1022.44 669.394,-981.358 676.223,-954.251"/>
<polygon fill="black" stroke="black" points="679.694,-954.791 678.679,-944.245 672.896,-953.122 679.694,-954.791"/>
<text text-anchor="middle" x="670" y="-1033.4" font-family="Times Roman,serif" font-size="14.00">257</text>
</g>
<!-- N17 -->
<g id="node18" class="node"><title>N17</title>
<polygon fill="none" stroke="black" points="552,-1000 458,-1000 458,-962 552,-962 552,-1000"/>
<text text-anchor="middle" x="505" y="-988.8" font-family="Times Roman,serif" font-size="8.00">runtime.makeslice</text>
<text text-anchor="end" x="544.5" y="-978.8" font-family="Times Roman,serif" font-size="8.00">0 (0.0%)</text>
<text text-anchor="end" x="544.5" y="-968.8" font-family="Times Roman,serif" font-size="8.00">of 221 (11.9%)</text>
</g>
<!-- N6&#45;&gt;N17 -->
<g id="edge46" class="edge"><title>N6&#45;&gt;N17</title>
<path fill="none" stroke="black" stroke-width="1.25806" d="M569.517,-1109.85C564.645,-1104.24 559.468,-1097.99 555,-1092 543.649,-1076.78 540.379,-1073.04 532,-1056 524.776,-1041.31 518.463,-1024.18 513.762,-1010.01"/>
<polygon fill="black" stroke="black" points="517.028,-1008.73 510.634,-1000.28 510.365,-1010.87 517.028,-1008.73"/>
<text text-anchor="middle" x="569" y="-1079.4" font-family="Times Roman,serif" font-size="14.00">221</text>
</g>
<!-- N22 -->
<g id="node23" class="node"><title>N22</title>
<polygon fill="none" stroke="black" points="819,-1056 715,-1056 715,-1018 819,-1018 819,-1056"/>
<text text-anchor="middle" x="767" y="-1044.8" font-family="Times Roman,serif" font-size="8.00">main.*LSG·NewLoop</text>
<text text-anchor="end" x="811" y="-1034.8" font-family="Times Roman,serif" font-size="8.00">0 (0.0%)</text>
<text text-anchor="end" x="811" y="-1024.8" font-family="Times Roman,serif" font-size="8.00">of 109 (5.9%)</text>
</g>
<!-- N6&#45;&gt;N22 -->
<g id="edge34" class="edge"><title>N6&#45;&gt;N22</title>
<path fill="none" stroke="black" d="M629.423,-1114.85C646.432,-1108.61 665.993,-1100.72 683,-1092 699.986,-1083.29 717.81,-1071.97 732.648,-1061.86"/>
<polygon fill="black" stroke="black" points="734.775,-1064.65 741.01,-1056.08 730.794,-1058.89 734.775,-1064.65"/>
<text text-anchor="middle" x="728" y="-1079.4" font-family="Times Roman,serif" font-size="14.00">109</text>
</g>
<!-- N7 -->
<g id="node8" class="node"><title>N7</title>
<polygon fill="none" stroke="black" points="711,-760 633,-760 633,-722 711,-722 711,-760"/>
<text text-anchor="middle" x="672" y="-748.8" font-family="Times Roman,serif" font-size="8.00">runtime.mal</text>
<text text-anchor="end" x="703.5" y="-738.8" font-family="Times Roman,serif" font-size="8.00">0 (0.0%)</text>
<text text-anchor="end" x="703.5" y="-728.8" font-family="Times Roman,serif" font-size="8.00">of 881 (47.6%)</text>
</g>
<!-- N7&#45;&gt;N1 -->
<g id="edge50" class="edge"><title>N7&#45;&gt;N1</title>
<path fill="none" stroke="black" stroke-width="2" d="M672,-721.743C672,-710.002 672,-694.267 672,-678.53"/>
<polygon fill="black" stroke="black" points="675.5,-678.23 672,-668.23 668.5,-678.23 675.5,-678.23"/>
<text text-anchor="middle" x="686" y="-691.4" font-family="Times Roman,serif" font-size="14.00">881</text>
</g>
<!-- N8 -->
<g id="node9" class="node"><title>N8</title>
<polygon fill="none" stroke="black" points="626,-852 548,-852 548,-814 626,-814 626,-852"/>
<text text-anchor="middle" x="587" y="-840.8" font-family="Times Roman,serif" font-size="8.00">makeslice1</text>
<text text-anchor="end" x="618.5" y="-830.8" font-family="Times Roman,serif" font-size="8.00">0 (0.0%)</text>
<text text-anchor="end" x="618.5" y="-820.8" font-family="Times Roman,serif" font-size="8.00">of 666 (36.0%)</text>
</g>
<!-- N8&#45;&gt;N1 -->
<g id="edge18" class="edge"><title>N8&#45;&gt;N1</title>
<path fill="none" stroke="black" d="M585.514,-813.883C584.432,-791.225 584.751,-752.677 596,-722 601.833,-706.094 610.747,-690.432 620.444,-676.229"/>
<polygon fill="black" stroke="black" points="623.315,-678.231 626.227,-668.045 617.598,-674.192 623.315,-678.231"/>
<text text-anchor="middle" x="610" y="-737.4" font-family="Times Roman,serif" font-size="14.00">159</text>
</g>
<!-- N8&#45;&gt;N7 -->
<g id="edge32" class="edge"><title>N8&#45;&gt;N7</title>
<path fill="none" stroke="black" stroke-width="2" d="M603.128,-813.882C612.3,-803.174 624.098,-789.668 635,-778 638.155,-774.623 641.518,-771.127 644.88,-767.693"/>
<polygon fill="black" stroke="black" points="647.61,-769.91 652.162,-760.343 642.637,-764.984 647.61,-769.91"/>
<text text-anchor="middle" x="649" y="-783.4" font-family="Times Roman,serif" font-size="14.00">507</text>
</g>
<!-- N13 -->
<g id="node14" class="node"><title>N13</title>
<polygon fill="none" stroke="black" points="711,-342 633,-342 633,-304 711,-304 711,-342"/>
<text text-anchor="middle" x="672" y="-330.8" font-family="Times Roman,serif" font-size="8.00">mark</text>
<text text-anchor="end" x="703.5" y="-320.8" font-family="Times Roman,serif" font-size="8.00">0 (0.0%)</text>
<text text-anchor="end" x="703.5" y="-310.8" font-family="Times Roman,serif" font-size="8.00">of 283 (15.3%)</text>
</g>
<!-- N9&#45;&gt;N13 -->
<g id="edge6" class="edge"><title>N9&#45;&gt;N13</title>
<path fill="none" stroke="black" stroke-width="1.61101" d="M672,-448.745C672,-424.154 672,-381.347 672,-352.597"/>
<polygon fill="black" stroke="black" points="675.5,-352.334 672,-342.335 668.5,-352.335 675.5,-352.334"/>
<text text-anchor="middle" x="686" y="-395.4" font-family="Times Roman,serif" font-size="14.00">283</text>
</g>
<!-- N15 -->
<g id="node16" class="node"><title>N15</title>
<polygon fill="none" stroke="black" points="615,-372 423,-372 423,-274 615,-274 615,-372"/>
<text text-anchor="middle" x="519" y="-346.13" font-family="Times Roman,serif" font-size="24.30">sweep</text>
<text text-anchor="end" x="607.5" y="-316.13" font-family="Times Roman,serif" font-size="24.30">112 (6.1%)</text>
<text text-anchor="end" x="607.5" y="-286.13" font-family="Times Roman,serif" font-size="24.30">of 276 (14.9%)</text>
</g>
<!-- N9&#45;&gt;N15 -->
<g id="edge52" class="edge"><title>N9&#45;&gt;N15</title>
<path fill="none" stroke="black" stroke-width="1.57116" d="M651.683,-448.745C632.965,-431.006 604.246,-403.788 578.307,-379.206"/>
<polygon fill="black" stroke="black" points="580.386,-376.354 570.72,-372.015 575.57,-381.435 580.386,-376.354"/>
<text text-anchor="middle" x="618" y="-395.4" font-family="Times Roman,serif" font-size="14.00">276</text>
</g>
<!-- N10 -->
<g id="node11" class="node"><title>N10</title>
<polygon fill="none" stroke="black" points="626,-944 548,-944 548,-906 626,-906 626,-944"/>
<text text-anchor="middle" x="587" y="-932.8" font-family="Times Roman,serif" font-size="8.00">growslice1</text>
<text text-anchor="end" x="618.5" y="-922.8" font-family="Times Roman,serif" font-size="8.00">0 (0.0%)</text>
<text text-anchor="end" x="618.5" y="-912.8" font-family="Times Roman,serif" font-size="8.00">of 445 (24.0%)</text>
</g>
<!-- N10&#45;&gt;N8 -->
<g id="edge20" class="edge"><title>N10&#45;&gt;N8</title>
<path fill="none" stroke="black" stroke-width="2" d="M587,-905.938C587,-893.355 587,-876.621 587,-862.356"/>
<polygon fill="black" stroke="black" points="590.5,-862.038 587,-852.038 583.5,-862.038 590.5,-862.038"/>
<text text-anchor="middle" x="601" y="-875.4" font-family="Times Roman,serif" font-size="14.00">445</text>
</g>
<!-- N11&#45;&gt;N10 -->
<g id="edge24" class="edge"><title>N11&#45;&gt;N10</title>
<path fill="none" stroke="black" stroke-width="2" d="M587,-1017.75C587,-1000.25 587,-974.189 587,-954.143"/>
<polygon fill="black" stroke="black" points="590.5,-954.002 587,-944.002 583.5,-954.002 590.5,-954.002"/>
<text text-anchor="middle" x="601" y="-977.4" font-family="Times Roman,serif" font-size="14.00">421</text>
</g>
<!-- N12&#45;&gt;N7 -->
<g id="edge38" class="edge"><title>N12&#45;&gt;N7</title>
<path fill="none" stroke="black" stroke-width="2" d="M681.844,-905.657C679.916,-873.409 676.033,-808.462 673.763,-770.485"/>
<polygon fill="black" stroke="black" points="677.232,-769.858 673.141,-760.084 670.244,-770.275 677.232,-769.858"/>
<text text-anchor="middle" x="692" y="-829.4" font-family="Times Roman,serif" font-size="14.00">374</text>
</g>
<!-- N14 -->
<g id="node15" class="node"><title>N14</title>
<polygon fill="none" stroke="black" points="815,-88 589,-88 589,-4.26326e-14 815,-1.42109e-14 815,-88"/>
<text text-anchor="middle" x="702" y="-53.49" font-family="Times Roman,serif" font-size="33.90">scanblock</text>
<text text-anchor="end" x="807.5" y="-13.49" font-family="Times Roman,serif" font-size="33.90">283 (15.3%)</text>
</g>
<!-- N13&#45;&gt;N14 -->
<g id="edge44" class="edge"><title>N13&#45;&gt;N14</title>
<path fill="none" stroke="black" d="M671.94,-303.886C672.061,-270.771 673.309,-200.647 681,-142 682.875,-127.701 685.737,-112.388 688.751,-98.2171"/>
<polygon fill="black" stroke="black" points="692.239,-98.6483 690.96,-88.131 685.401,-97.1505 692.239,-98.6483"/>
<text text-anchor="middle" x="695" y="-177.4" font-family="Times Roman,serif" font-size="14.00">169</text>
</g>
<!-- N21 -->
<g id="node22" class="node"><title>N21</title>
<polygon fill="none" stroke="black" points="792,-200 718,-200 718,-162 792,-162 792,-200"/>
<text text-anchor="middle" x="755" y="-188.8" font-family="Times Roman,serif" font-size="8.00">scanstack</text>
<text text-anchor="end" x="784" y="-178.8" font-family="Times Roman,serif" font-size="8.00">0 (0.0%)</text>
<text text-anchor="end" x="784" y="-168.8" font-family="Times Roman,serif" font-size="8.00">of 114 (6.2%)</text>
</g>
<!-- N13&#45;&gt;N21 -->
<g id="edge26" class="edge"><title>N13&#45;&gt;N21</title>
<path fill="none" stroke="black" d="M683.194,-303.849C697.426,-279.5 722.114,-237.262 738.505,-209.22"/>
<polygon fill="black" stroke="black" points="741.694,-210.7 743.719,-200.301 735.651,-207.168 741.694,-210.7"/>
<text text-anchor="middle" x="734" y="-243.4" font-family="Times Roman,serif" font-size="14.00">114</text>
</g>
<!-- N19 -->
<g id="node20" class="node"><title>N19</title>
<polygon fill="none" stroke="black" points="628,-219.5 410,-219.5 410,-142.5 628,-142.5 628,-219.5"/>
<text text-anchor="middle" x="519" y="-198.58" font-family="Times Roman,serif" font-size="18.80">runtime.MCache_Free</text>
<text text-anchor="end" x="620" y="-175.58" font-family="Times Roman,serif" font-size="18.80">49 (2.6%)</text>
<text text-anchor="end" x="620" y="-152.58" font-family="Times Roman,serif" font-size="18.80">of 164 (8.9%)</text>
</g>
<!-- N15&#45;&gt;N19 -->
<g id="edge14" class="edge"><title>N15&#45;&gt;N19</title>
<path fill="none" stroke="black" d="M519,-273.734C519,-259.553 519,-244.092 519,-229.932"/>
<polygon fill="black" stroke="black" points="522.5,-229.887 519,-219.887 515.5,-229.887 522.5,-229.887"/>
<text text-anchor="middle" x="533" y="-243.4" font-family="Times Roman,serif" font-size="14.00">164</text>
</g>
<!-- N18 -->
<g id="node19" class="node"><title>N18</title>
<polygon fill="none" stroke="black" points="960,-355.5 742,-355.5 742,-290.5 960,-290.5 960,-355.5"/>
<text text-anchor="middle" x="851" y="-338.27" font-family="Times Roman,serif" font-size="14.70">runtime.MCentral_AllocList</text>
<text text-anchor="end" x="952.5" y="-319.27" font-family="Times Roman,serif" font-size="14.70">19 (1.0%)</text>
<text text-anchor="end" x="952.5" y="-300.27" font-family="Times Roman,serif" font-size="14.70">of 206 (11.1%)</text>
</g>
<!-- N16&#45;&gt;N18 -->
<g id="edge22" class="edge"><title>N16&#45;&gt;N18</title>
<path fill="none" stroke="black" stroke-width="1.17268" d="M851,-426.449C851,-407.525 851,-385.139 851,-366.039"/>
<polygon fill="black" stroke="black" points="854.5,-365.809 851,-355.809 847.5,-365.809 854.5,-365.809"/>
<text text-anchor="middle" x="865" y="-395.4" font-family="Times Roman,serif" font-size="14.00">206</text>
</g>
<!-- N17&#45;&gt;N8 -->
<g id="edge28" class="edge"><title>N17&#45;&gt;N8</title>
<path fill="none" stroke="black" stroke-width="1.25806" d="M502.899,-961.863C501.998,-946.109 502.663,-923.587 511,-906 519.795,-887.448 535.483,-871.134 550.331,-858.66"/>
<polygon fill="black" stroke="black" points="552.845,-861.13 558.444,-852.135 548.458,-855.675 552.845,-861.13"/>
<text text-anchor="middle" x="525" y="-921.4" font-family="Times Roman,serif" font-size="14.00">221</text>
</g>
<!-- N20 -->
<g id="node21" class="node"><title>N20</title>
<polygon fill="none" stroke="black" points="571,-72 467,-72 467,-16 571,-16 571,-72"/>
<text text-anchor="middle" x="519" y="-56.39" font-family="Times Roman,serif" font-size="12.90">ReleaseN</text>
<text text-anchor="end" x="563" y="-40.39" font-family="Times Roman,serif" font-size="12.90">10 (0.5%)</text>
<text text-anchor="end" x="563" y="-24.39" font-family="Times Roman,serif" font-size="12.90">of 115 (6.2%)</text>
</g>
<!-- N19&#45;&gt;N20 -->
<g id="edge40" class="edge"><title>N19&#45;&gt;N20</title>
<path fill="none" stroke="black" d="M519,-142.473C519,-123.642 519,-101.047 519,-82.2523"/>
<polygon fill="black" stroke="black" points="522.5,-82.2502 519,-72.2502 515.5,-82.2502 522.5,-82.2502"/>
<text text-anchor="middle" x="533" y="-111.4" font-family="Times Roman,serif" font-size="14.00">115</text>
</g>
<!-- N21&#45;&gt;N14 -->
<g id="edge4" class="edge"><title>N21&#45;&gt;N14</title>
<path fill="none" stroke="black" d="M747.631,-161.951C741.21,-145.353 731.58,-120.461 722.819,-97.8158"/>
<polygon fill="black" stroke="black" points="726.002,-96.3426 719.13,-88.279 719.474,-98.8682 726.002,-96.3426"/>
<text text-anchor="middle" x="745" y="-111.4" font-family="Times Roman,serif" font-size="14.00">114</text>
</g>
<!-- N22&#45;&gt;N12 -->
<g id="edge42" class="edge"><title>N22&#45;&gt;N12</title>
<path fill="none" stroke="black" d="M752.56,-1017.75C739.015,-999.687 718.624,-972.499 703.417,-952.222"/>
<polygon fill="black" stroke="black" points="706.052,-949.902 697.252,-944.002 700.452,-954.102 706.052,-949.902"/>
<text text-anchor="middle" x="751" y="-977.4" font-family="Times Roman,serif" font-size="14.00">109</text>
</g>
</g>
</g></svg>
